<?xml version="1.0" encoding="UTF-8"?>
<svg version="1.1" xmlns="http://www.w3.org/2000/svg" width="612" height="792">
<path d="M0 0 C0.67619957 -0.00367669 1.35239914 -0.00735338 2.04908961 -0.01114148 C4.31981801 -0.02217354 6.59050064 -0.02602132 8.86125183 -0.02983093 C10.48740789 -0.03609588 12.11356252 -0.04274271 13.73971558 -0.04974365 C19.08384708 -0.07078042 24.42797887 -0.08114478 29.7721405 -0.09111023 C31.61170148 -0.09515774 33.45126231 -0.09927467 35.29082298 -0.10346031 C43.93204212 -0.1225101 52.57325271 -0.13674232 61.2144888 -0.14507228 C71.1911382 -0.15484828 81.16756593 -0.18117813 91.1441372 -0.22157317 C98.85463297 -0.25172235 106.56506515 -0.26653997 114.27561873 -0.26985329 C118.88131301 -0.27220491 123.48677042 -0.28117996 128.0924015 -0.30631447 C132.42545118 -0.32957967 136.75810777 -0.33383477 141.09120369 -0.32355309 C142.68029334 -0.32305725 144.26940225 -0.32939169 145.85843277 -0.34310913 C148.0308484 -0.36081142 150.20185067 -0.35373188 152.37426758 -0.34057617 C154.19633838 -0.3441587 154.19633838 -0.3441587 156.0552187 -0.34781361 C159.37760925 0.14717102 159.37760925 0.14717102 162.37160206 2.14521885 C166.02991831 4.5815983 168.11506386 4.65311259 172.47706604 4.66615295 C173.16822939 4.67365421 173.85939273 4.68115546 174.57150042 4.68888402 C176.87485549 4.70909595 179.17722003 4.70107195 181.4806366 4.69306946 C183.13668284 4.70180806 184.79272064 4.71229485 186.44874573 4.72439575 C190.9359179 4.75224132 195.42281438 4.75566076 199.91006041 4.75467587 C204.60264469 4.7578062 209.29510504 4.78342695 213.98762512 4.80665588 C222.86974827 4.84721012 231.751798 4.86755525 240.63399947 4.88062978 C250.74767587 4.89650176 260.86122739 4.93491824 270.97483134 4.97522306 C291.77571612 5.05761413 312.57659501 5.11171121 333.37760925 5.14717102 C332.50045319 9.07090158 330.80404787 12.24630515 328.81510925 15.70967102 C328.42798767 16.39094055 328.04086609 17.07221008 327.64201355 17.77412415 C323.05450131 25.79596546 318.31656191 33.73056578 313.59391785 41.67329407 C309.17620354 49.10378433 304.78888093 56.55105923 300.44010925 64.02217102 C295.32931362 72.80137569 290.20436195 81.57210438 285.06510925 90.33467102 C284.71058685 90.9391507 284.35606445 91.54363037 283.99079895 92.16642761 C282.54733376 94.62753883 281.10383549 97.08863063 279.66021729 99.5496521 C277.09692307 103.91973822 274.53565072 108.29100503 271.9752655 112.66279602 C265.11196804 124.3804878 258.23706629 136.09089904 251.32096863 147.77754211 C244.7024389 158.96824359 238.13772635 170.19053588 231.56706238 181.40937805 C227.65353441 188.09103769 223.73659109 194.77069595 219.82023621 201.45069885 C218.76121353 203.25706208 217.70221449 205.06343916 216.64323425 206.86982727 C216.29341492 207.46654236 215.94359558 208.06325745 215.58317566 208.67805481 C213.41717744 212.37303684 211.25201909 216.06850971 209.08744812 219.764328 C201.8632713 232.09891876 194.62977654 244.42757983 187.34953308 256.72920227 C182.65291757 264.67020483 177.98167783 272.62598881 173.31510925 280.58467102 C172.94708191 281.21204163 172.57905457 281.83941223 172.19987488 282.48579407 C168.56156659 288.68871778 164.92466588 294.89145298 161.37760925 301.14717102 C157.25886314 299.77425565 156.91619916 297.91533094 154.9440155 294.10029602 C154.62480637 293.49208008 154.30559723 292.88386414 153.97671509 292.25721741 C152.95531477 290.30850605 151.94687607 288.35347741 150.94010925 286.39717102 C149.9354946 284.45596125 148.9280495 282.51638283 147.91421509 280.57997131 C146.98996245 278.81313017 146.07525453 277.04130582 145.16105652 275.26924133 C143.44328787 272.26214682 141.72877683 269.68913174 139.37760925 267.14717102 C137.38474988 266.77350989 135.38397397 266.43976587 133.37760925 266.14717102 C129.58886347 263.03249657 127.34011727 259.03689727 124.94010925 254.83467102 C124.51326843 254.09829407 124.08642761 253.36191711 123.64665222 252.60322571 C118.92682598 244.43163659 114.30171047 236.20516444 109.670578 227.98310852 C106.57193067 222.48471581 103.44921013 217.0004189 100.31510925 211.52217102 C99.57865173 210.23488098 99.57865173 210.23488098 98.82731628 208.92158508 C97.83885127 207.19429041 96.85024491 205.46707662 95.86149597 203.73994446 C93.86615852 200.25352068 91.87326413 196.7657036 89.88053894 193.27778625 C88.37593677 190.64424363 86.8709136 188.01094187 85.3658905 185.37763977 C83.40348065 181.94358207 81.4426333 178.50863958 79.483078 175.07295227 C73.99631769 165.45660039 68.48114077 155.85736438 62.94010925 146.27217102 C58.18582302 138.04754558 53.47367575 129.80137398 48.81510925 121.52217102 C44.4064317 113.68827455 39.92176675 105.90324301 35.37760925 98.14717102 C29.12399436 87.47252455 23.02342872 76.71686781 16.95231628 65.93769836 C11.14427413 55.64530738 5.30198913 45.3713844 -0.71199036 35.19770813 C-1.95328481 33.09682022 -3.18686921 30.99156845 -4.41926575 28.88545227 C-5.77556875 26.56931308 -7.15882911 24.28350526 -8.57551575 22.00263977 C-12.03143753 16.2293125 -14.26081434 10.95488457 -12.62239075 4.14717102 C-9.20754772 -0.20799109 -5.21006727 0.01834661 0 0 Z M209.37760925 39.14717102 C205.21222961 45.09287578 205.21222961 45.09287578 205.37760925 48.14717102 C200.42760925 48.14717102 195.47760925 48.14717102 190.37760925 48.14717102 C191.7194589 52.17271997 192.69723096 55.01353173 194.7252655 58.52998352 C195.38558777 59.69207336 195.38558777 59.69207336 196.05924988 60.87763977 C196.51493347 61.66783508 196.97061707 62.4580304 197.44010925 63.27217102 C198.3520466 64.85559099 199.25976708 66.44144885 200.1627655 68.02998352 C200.56374451 68.72494934 200.96472351 69.41991516 201.37785339 70.13594055 C202.37425446 72.14042211 202.87089942 73.97644609 203.37760925 76.14717102 C231.39799414 80.51274904 231.39799414 80.51274904 257.23551941 73.65840149 C262.90482428 67.99199393 265.85304568 60.31377332 268.13468933 52.76094055 C269.75839172 48.04005216 272.14497867 43.61243219 274.37760925 39.14717102 C252.92760925 39.14717102 231.47760925 39.14717102 209.37760925 39.14717102 Z M68.37760925 50.14717102 C69.66448362 54.28044348 71.21538804 58.02811603 73.21354675 61.86592102 C73.7772699 62.95211731 74.34099304 64.0383136 74.92179871 65.15742493 C75.52596619 66.30904114 76.13013367 67.46065735 76.75260925 68.64717102 C77.38319559 69.85592281 78.01364636 71.06474533 78.64396667 72.27363586 C83.5332674 81.62868295 88.56418301 90.90396687 93.6471405 100.15498352 C96.4752633 105.30792746 99.22355968 110.50047902 101.9584198 115.70332336 C104.43018111 120.39203656 106.9602774 125.04578216 109.514328 129.69013977 C115.11879252 139.88408705 120.52084909 150.1706177 125.83818054 160.5160675 C130.96906689 170.49289989 136.2640589 180.36939736 141.66667175 190.20185852 C148.53464955 202.70186892 155.06162592 215.36031647 161.37760925 228.14717102 C162.03760925 228.14717102 162.69760925 228.14717102 163.37760925 228.14717102 C164.66167324 226.19492894 165.85702604 224.1837634 167.00260925 222.14717102 C167.63424988 221.03342102 168.2658905 219.91967102 168.91667175 218.77217102 C169.39878113 217.90592102 169.8808905 217.03967102 170.37760925 216.14717102 C169.54229675 215.80685852 169.54229675 215.80685852 168.69010925 215.45967102 C161.84171706 211.57274572 158.84355505 205.09779489 155.19010925 198.39717102 C154.04033305 196.32355218 152.88927982 194.25064093 151.73698425 192.17842102 C151.17044128 191.15619446 150.60389832 190.1339679 150.02018738 189.08076477 C147.72451738 184.98076913 145.3421804 180.93545575 142.94010925 176.89717102 C139.87676963 171.72583633 136.89126079 166.53024581 134.04167175 161.23701477 C127.32557972 148.76652464 120.41958519 136.40167989 113.43278503 124.08125305 C109.92724349 117.89773813 106.44856524 111.69995964 102.98625183 105.49214172 C97.97155471 96.50222188 92.90552548 87.55447114 87.64909363 78.7035675 C85.42365102 74.95022995 83.26513412 71.17428396 81.19010925 67.33467102 C77.9672857 61.38225404 77.9672857 61.38225404 74.69010925 55.45967102 C74.12936707 54.44517883 73.56862488 53.43068665 72.9908905 52.38545227 C72.19231628 51.27750305 72.19231628 51.27750305 71.37760925 50.14717102 C70.38760925 50.14717102 69.39760925 50.14717102 68.37760925 50.14717102 Z M130.37760925 50.14717102 C131.81743511 54.95648626 133.86972331 59.25061552 136.25260925 63.64717102 C136.64625671 64.38217834 137.03990417 65.11718567 137.44548035 65.87446594 C141.09789694 72.6762251 144.80582017 79.44825112 148.51408386 86.21968079 C152.34221058 93.21867578 156.10718796 100.25023493 159.85881042 107.29042053 C165.28695465 117.47494668 170.84137862 127.57313032 176.57975769 137.58686829 C181.39104428 146.03943082 185.85719435 154.6603733 190.24137878 163.34126282 C190.75426453 164.3471344 191.26715027 165.35300598 191.795578 166.38935852 C192.24699158 167.28509583 192.69840515 168.18083313 193.16349792 169.10371399 C194.21363817 171.29039859 194.21363817 171.29039859 196.37760925 172.14717102 C196.93351746 171.1778363 196.93351746 171.1778363 197.50065613 170.18891907 C205.53376891 156.19365357 213.63843407 142.24742051 221.920578 128.39790344 C225.89705791 121.7279925 229.71448276 114.99436705 233.37760925 108.14717102 C226.88164546 108.02055356 220.38599889 107.93289756 213.88908386 107.87251282 C211.67835092 107.84734472 209.46770137 107.81320722 207.25724792 107.76997375 C204.08231558 107.70942423 200.90848165 107.68098432 197.733078 107.65888977 C196.24701302 107.62018013 196.24701302 107.62018013 194.73092651 107.58068848 C192.18111393 107.57964262 189.87018981 107.60912565 187.37760925 108.14717102 C185.24097022 110.4492907 185.24097022 110.4492907 184.37760925 113.14717102 C181.16823516 115.47120053 178.26254905 115.62287793 174.37760925 115.14717102 C168.75277702 111.7951912 166.23236246 106.24751687 163.12760925 100.70967102 C161.89520497 98.55434065 160.66209939 96.39941116 159.4283905 94.24482727 C158.77693054 93.1003009 158.12547058 91.95577454 157.45426941 90.77656555 C154.16234808 85.007695 150.79583675 79.28221363 147.43363953 73.55412292 C146.3378515 71.68594365 145.24466052 69.81626673 144.15202332 67.94624329 C142.82323648 65.6733839 141.48720915 63.40535387 140.14665222 61.13935852 C139.04529957 59.27651307 137.95392341 57.40768678 136.87809753 55.52998352 C135.79332734 53.68494358 134.59826625 51.90526523 133.37760925 50.14717102 C132.38760925 50.14717102 131.39760925 50.14717102 130.37760925 50.14717102 Z " fill="#D31F27" transform="translate(115.62239074707031,164.8528289794922)"/>
<path d="M0 0 C56.76 0 113.52 0 172 0 C171.00153309 3.99386765 169.45968191 7.04124713 167.4375 10.5625 C166.85681763 11.5844043 166.85681763 11.5844043 166.2644043 12.62695312 C161.67689205 20.64879444 156.93895265 28.58339476 152.21630859 36.52612305 C147.79859429 43.95661331 143.41127167 51.40388821 139.0625 58.875 C133.95170437 67.65420467 128.8267527 76.42493336 123.6875 85.1875 C123.3329776 85.79197968 122.9784552 86.39645935 122.6131897 87.01925659 C121.16972451 89.48036781 119.72622624 91.94145961 118.28260803 94.40248108 C115.71931382 98.7725672 113.15804147 103.14383401 110.59765625 107.515625 C103.73435878 119.23331678 96.85945704 130.94372802 89.94335938 142.63037109 C83.32482964 153.82107257 76.7601171 165.04336486 70.18945312 176.26220703 C66.27592516 182.94386667 62.35898183 189.62352493 58.44262695 196.30352783 C57.38360427 198.10989106 56.32460524 199.91626814 55.265625 201.72265625 C54.91580566 202.31937134 54.56598633 202.91608643 54.20556641 203.53088379 C52.03956819 207.22586582 49.87440984 210.92133869 47.70983887 214.61715698 C40.48566204 226.95174774 33.25216729 239.28040881 25.97192383 251.58203125 C21.27530831 259.52303381 16.60406858 267.47881779 11.9375 275.4375 C11.38545898 276.37855591 11.38545898 276.37855591 10.82226562 277.33862305 C7.18395734 283.54154676 3.54705662 289.74428195 0 296 C-4.1085715 294.63047617 -4.47517804 292.78196644 -6.46875 288.98828125 C-6.79033081 288.38243698 -7.11191162 287.77659271 -7.4432373 287.15238953 C-8.47122161 285.21038672 -9.48562863 283.26164177 -10.5 281.3125 C-11.18272859 280.0184234 -11.86631298 278.72479791 -12.55078125 277.43164062 C-14.38243413 273.9622298 -16.20067514 270.48632346 -18 267 C-18.88425659 265.40551025 -18.88425659 265.40551025 -19.78637695 263.77880859 C-21 261 -21 261 -19.88671875 257.86328125 C-19.17793838 256.66498227 -18.44219205 255.48242733 -17.6875 254.3125 C-17.07648438 253.29869263 -17.07648438 253.29869263 -16.453125 252.2644043 C-15.51641493 250.71221462 -14.56951814 249.16614532 -13.61474609 247.625 C-11.18967226 243.68269673 -8.85110804 239.69026822 -6.50073242 235.703125 C-4.44814818 232.22462715 -2.3851825 228.75245892 -0.3203125 225.28125 C4.02274504 217.97469365 8.32899335 210.64679761 12.625 203.3125 C12.98150635 202.70395172 13.3380127 202.09540344 13.70532227 201.46841431 C19.04768826 192.34751929 24.37564571 183.21823958 29.69848633 174.0859375 C36.00223749 163.27388098 42.33468733 152.47868688 48.66752625 141.68365479 C50.97591171 137.74807424 53.28173614 133.8110037 55.58583069 129.87290955 C57.15740204 127.18685883 58.72961371 124.50118315 60.30184937 121.81552124 C61.0536504 120.53089565 61.80514012 119.24608781 62.55630493 117.96109009 C63.59791957 116.17931085 64.64063805 114.39818199 65.68359375 112.6171875 C66.27712646 111.60253418 66.87065918 110.58788086 67.48217773 109.54248047 C68.60383154 107.66361563 69.78620235 105.82069647 71 104 C46.25 103.505 46.25 103.505 21 103 C22.48758746 99.28103135 23.91151015 96.26569861 25.93359375 92.875 C26.50013672 91.92109375 27.06667969 90.9671875 27.65039062 89.984375 C28.24013672 88.99953125 28.82988281 88.0146875 29.4375 87 C30.02337891 86.01515625 30.60925781 85.0303125 31.21289062 84.015625 C32.80475914 81.34143045 34.40077198 78.6697985 36 76 C36.32250732 75.06720215 36.64501465 74.1344043 36.97729492 73.17333984 C39 71 39 71 41.22428894 70.69219971 C44.30807423 70.70705258 47.35319439 70.88935472 50.4296875 71.1015625 C52.7758572 71.18261196 55.12223 71.2579456 57.46875 71.328125 C61.16667309 71.45935426 64.84910563 71.623144 68.54003906 71.88769531 C80.5028894 72.78545088 80.5028894 72.78545088 92 70 C98.66058367 63.88282465 101.58459178 55.15589894 105 47 C107.31 43.04 109.62 39.08 112 35 C80.32 34.505 80.32 34.505 48 34 C47.34 35.65 46.68 37.3 46 39 C45.34786461 40.34050052 44.68620031 41.67661368 44 43 C40.95349368 43.24432377 37.92658981 43.42155414 34.875 43.5625 C34.0190625 43.63791016 33.163125 43.71332031 32.28125 43.79101562 C29.60861861 43.88352979 27.55792975 43.79539963 25 43 C22.28324357 40.39113059 20.73387548 37.31511894 19 34 C17.93394571 32.21593358 16.86084018 30.43606441 15.78125 28.66015625 C14.68488226 26.79580777 13.59115496 24.92990416 12.5 23.0625 C11.40658613 21.19902148 10.3128379 19.33573911 9.21875 17.47265625 C8.69023437 16.56918457 8.16171875 15.66571289 7.6171875 14.73486328 C5.48391306 11.1272334 3.28944438 7.55779717 1.08398438 3.99389648 C0 2 0 2 0 0 Z " fill="#000000" transform="translate(277,170)"/>
<path d="M0 0 C0.67619957 -0.00367669 1.35239914 -0.00735338 2.04908961 -0.01114148 C4.31981801 -0.02217354 6.59050064 -0.02602132 8.86125183 -0.02983093 C10.48740789 -0.03609588 12.11356252 -0.04274271 13.73971558 -0.04974365 C19.08384708 -0.07078042 24.42797887 -0.08114478 29.7721405 -0.09111023 C31.61170148 -0.09515774 33.45126231 -0.09927467 35.29082298 -0.10346031 C43.93204212 -0.1225101 52.57325271 -0.13674232 61.2144888 -0.14507228 C71.1911382 -0.15484828 81.16756593 -0.18117813 91.1441372 -0.22157317 C98.85463297 -0.25172235 106.56506515 -0.26653997 114.27561873 -0.26985329 C118.88131301 -0.27220491 123.48677042 -0.28117996 128.0924015 -0.30631447 C132.42545118 -0.32957967 136.75810777 -0.33383477 141.09120369 -0.32355309 C142.68029334 -0.32305725 144.26940225 -0.32939169 145.85843277 -0.34310913 C148.0308484 -0.36081142 150.20185067 -0.35373188 152.37426758 -0.34057617 C154.19633838 -0.3441587 154.19633838 -0.3441587 156.0552187 -0.34781361 C160.01882152 0.2427017 162.23025888 1.727947 165.37760925 4.14717102 C164.05760925 4.47717102 162.73760925 4.80717102 161.37760925 5.14717102 C171.56269667 23.02145926 171.56269667 23.02145926 182.06510925 40.70967102 C182.44973328 41.36258118 182.8343573 42.01549133 183.2306366 42.68818665 C184.41140694 44.66623635 184.41140694 44.66623635 186.37760925 47.14717102 C187.33099182 47.31660217 187.33099182 47.31660217 188.30363464 47.48945618 C191.46709176 48.49267613 192.07133993 50.48647064 193.61198425 53.35420227 C194.47243347 54.94651672 194.47243347 54.94651672 195.3502655 56.57099915 C195.93678894 57.68926086 196.52331238 58.80752258 197.12760925 59.95967102 C197.72960144 61.06633118 198.33159363 62.17299133 198.951828 63.31318665 C203.37760925 71.60776307 203.37760925 71.60776307 203.37760925 76.14717102 C202.38760925 76.14717102 201.39760925 76.14717102 200.37760925 76.14717102 C200.10811462 76.8664679 199.83862 77.58576477 199.56095886 78.32685852 C198.3792337 81.14329942 197.00751487 83.65044206 195.4440155 86.27217102 C194.87747253 87.22607727 194.31092957 88.17998352 193.72721863 89.16279602 C192.84259949 90.64006165 192.84259949 90.64006165 191.94010925 92.14717102 C191.35423035 93.13201477 190.76835144 94.11685852 190.16471863 95.13154602 C187.57866321 99.47588429 184.97957248 103.81234592 182.37760925 108.14717102 C184.02760925 108.14717102 185.67760925 108.14717102 187.37760925 108.14717102 C186.44362319 111.28876051 185.70965984 112.87968582 183.12760925 114.95967102 C179.80456654 116.39462128 177.9629012 116.73252481 174.37760925 116.14717102 C168.38618072 112.13057089 165.52564219 106.86125173 162.06510925 100.64717102 C160.84326307 98.50217813 159.62056686 96.35766928 158.3971405 94.21357727 C157.75212585 93.07549622 157.10711121 91.93741516 156.44255066 90.7648468 C153.14928208 84.97453453 149.75828047 79.24098722 146.37971497 73.50019836 C144.92233378 71.02336457 143.4669133 68.54538755 142.01321411 66.06639099 C141.03200223 64.39417177 140.04811961 62.72352055 139.06413269 61.05293274 C137.68647364 58.67932272 136.37089852 56.28710945 135.07292175 53.86982727 C133.60614856 50.86880943 133.60614856 50.86880943 130.37760925 50.14717102 C133.30283655 56.19049775 136.3074481 62.13147603 139.75260925 67.89717102 C142.38125981 72.32587576 144.74874028 76.83223804 147.00260925 81.45967102 C150.20351927 87.99857163 153.69690569 94.33059948 157.31510925 100.64717102 C162.70824994 110.07418608 167.86720552 119.60811559 172.94010925 129.20967102 C173.30007996 129.89098083 173.66005066 130.57229065 174.03092957 131.27424622 C174.38896667 131.95193054 174.74700378 132.62961487 175.1158905 133.32783508 C175.83065015 134.68041859 176.54549313 136.03295807 177.26042175 137.38545227 C177.60929443 138.04548248 177.95816711 138.7055127 178.31761169 139.38554382 C182.08012671 146.49260239 185.92885364 153.55199614 189.79972839 160.60054016 C190.24695251 161.41514709 190.69417664 162.22975403 191.154953 163.06904602 C191.53901306 163.76610657 191.92307312 164.46316711 192.31877136 165.18135071 C192.66818787 165.83007141 193.01760437 166.47879211 193.37760925 167.14717102 C193.77407654 167.80878235 194.17054382 168.47039368 194.57902527 169.15205383 C195.59058601 171.67925481 195.34379824 172.62542677 194.37760925 175.14717102 C193.56106717 176.79101973 192.69166715 178.40906633 191.7877655 180.00654602 C191.25538269 180.95062317 190.72299988 181.89470032 190.17448425 182.86738586 C189.6021405 183.86721497 189.02979675 184.86704407 188.44010925 185.89717102 C187.85616394 186.91891418 187.27221863 187.94065735 186.670578 188.99336243 C184.91501326 192.04978914 183.14802535 195.09932773 181.37760925 198.14717102 C180.62906677 199.44702942 180.62906677 199.44702942 179.86540222 200.77314758 C178.55517091 203.03481826 177.22233079 205.28088131 175.87760925 207.52217102 C175.49354919 208.187005 175.10948914 208.85183899 174.71379089 209.53681946 C173.04840277 212.25121652 171.8221322 213.93757001 168.90885925 215.31123352 C165.19534508 215.07054279 163.95686558 213.81213048 161.37760925 211.14717102 C159.67735197 208.6434385 158.27879696 206.01478336 156.87760925 203.33467102 C155.9998861 201.70642854 155.12091882 200.07885627 154.2408905 198.45185852 C153.54600525 197.1578009 153.54600525 197.1578009 152.83708191 195.83760071 C150.30862656 191.17658064 147.68332291 186.5706776 145.06510925 181.95967102 C143.96332718 180.01448287 142.86176727 178.06916888 141.76042175 176.12373352 C141.20644714 175.14565735 140.65247253 174.16758118 140.08171082 173.15986633 C138.34081644 170.0821247 136.60468175 167.00174112 134.86979675 163.92060852 C134.00801819 162.39149841 134.00801819 162.39149841 133.12882996 160.83149719 C132.0403966 158.8999489 130.95292057 156.96786069 129.86662292 155.03511047 C127.42649265 150.7084071 124.94960747 146.41414202 122.373703 142.16670227 C119.20366698 136.91708953 116.28086311 131.54772343 113.37760925 126.14717102 C112.44856803 124.43067524 111.51888951 122.71452422 110.58854675 120.99873352 C110.12786804 120.14891907 109.66718933 119.29910461 109.19255066 118.42353821 C104.54543202 109.86678873 99.83352675 101.35165824 95.00260925 92.89717102 C94.52742859 92.06524231 94.05224792 91.2333136 93.56266785 90.37617493 C91.15597135 86.18318603 88.70857459 82.01872495 86.21354675 77.87763977 C84.19398729 74.52476624 82.2313946 71.15793245 80.37760925 67.70967102 C79.88647644 66.80603821 79.39534363 65.9024054 78.889328 64.97138977 C77.83552069 63.00264897 76.79764117 61.02533494 75.7721405 59.04170227 C75.25007019 58.04525696 74.72799988 57.04881165 74.19010925 56.02217102 C73.72217957 55.1120929 73.25424988 54.20201477 72.7721405 53.26435852 C71.48854643 50.84064099 71.48854643 50.84064099 68.37760925 50.14717102 C76.98693464 66.98843512 85.62223694 83.79937471 94.75260925 100.36592102 C97.17813832 104.76702593 99.53991077 109.19891885 101.87760925 113.64717102 C104.70412579 119.02457088 107.58696794 124.36694573 110.514328 129.69013977 C116.11879252 139.88408705 121.52084909 150.1706177 126.83818054 160.5160675 C131.96906689 170.49289989 137.2640589 180.36939736 142.66667175 190.20185852 C146.28837768 196.79351666 149.82773511 203.42586102 153.29997253 210.09736633 C154.44102317 212.2677925 155.61003625 214.4218728 156.779953 216.57685852 C157.54251911 218.01651417 158.30426712 219.45660352 159.06510925 220.89717102 C159.42894714 221.5531427 159.79278503 222.20911438 160.16764832 222.88496399 C162.57080412 227.51375605 162.57080412 227.51375605 161.66349792 230.48847961 C160.23956901 233.43258175 158.68628358 236.24966479 157.04167175 239.07685852 C156.38940613 240.20221008 155.7371405 241.32756165 155.06510925 242.48701477 C154.37771052 243.66545927 153.69020978 244.84384426 153.00260925 246.02217102 C152.32260901 247.19256229 151.64291874 248.36313371 150.96354675 249.53388977 C149.66928831 251.76317351 148.37229643 253.9908732 147.07218933 256.2167511 C145.69697493 258.59489524 144.36785416 260.98932757 143.0533905 263.40107727 C141.37760925 266.14717102 141.37760925 266.14717102 138.94010925 267.20967102 C135.9175375 267.13594976 134.08793602 266.48135664 131.37760925 265.14717102 C127.70231735 261.03842946 125.17540449 255.84252175 122.5690155 251.01045227 C119.52243777 245.39695075 116.40134666 239.82888052 113.25260925 234.27217102 C112.6913031 233.28039856 112.12999695 232.2886261 111.55168152 231.26679993 C106.34637494 222.07701334 101.10877376 212.90581248 95.86149597 203.73994446 C93.86615852 200.25352068 91.87326413 196.7657036 89.88053894 193.27778625 C88.37593677 190.64424363 86.8709136 188.01094187 85.3658905 185.37763977 C83.40348065 181.94358207 81.4426333 178.50863958 79.483078 175.07295227 C73.99631769 165.45660039 68.48114077 155.85736438 62.94010925 146.27217102 C58.18582302 138.04754558 53.47367575 129.80137398 48.81510925 121.52217102 C44.4064317 113.68827455 39.92176675 105.90324301 35.37760925 98.14717102 C29.12399436 87.47252455 23.02342872 76.71686781 16.95231628 65.93769836 C11.14427413 55.64530738 5.30198913 45.3713844 -0.71199036 35.19770813 C-1.95328481 33.09682022 -3.18686921 30.99156845 -4.41926575 28.88545227 C-5.77556875 26.56931308 -7.15882911 24.28350526 -8.57551575 22.00263977 C-12.03143753 16.2293125 -14.26081434 10.95488457 -12.62239075 4.14717102 C-9.20754772 -0.20799109 -5.21006727 0.01834661 0 0 Z M-8.62239075 6.14717102 C-7.26065446 9.63029772 -5.76731996 12.78857086 -3.85676575 16.00654602 C-3.30375793 16.94433899 -2.75075012 17.88213196 -2.1809845 18.8483429 C-1.58414856 19.85445618 -0.98731262 20.86056946 -0.37239075 21.89717102 C4.64774672 30.42516852 9.56927309 38.99802145 14.37760925 47.64717102 C19.47544699 56.80466126 24.69069595 65.8841132 29.99137878 74.92549133 C34.4603966 82.55515912 38.87122557 90.21694588 43.25260925 97.89717102 C43.5859729 98.48148895 43.91933655 99.06580688 44.26280212 99.66783142 C45.95764416 102.63909082 47.65168909 105.61080374 49.34538269 108.5827179 C52.35268221 113.85874524 55.36693785 119.13079714 58.38072205 124.40312195 C60.04143183 127.30852522 61.70168505 130.21418936 63.36198425 133.11982727 C64.02799768 134.28535587 64.69401332 135.45088321 65.36003113 136.6164093 C66.72070821 138.9975942 68.08138529 141.37877909 69.44206238 143.75996399 C69.7846257 144.35944351 70.12718903 144.95892303 70.48013306 145.5765686 C71.17096105 146.78553028 71.8617672 147.99450444 72.55255127 149.20349121 C74.24754871 152.16995637 75.94290598 155.13621462 77.63908386 158.102005 C80.70202114 163.45882215 83.76054743 168.81797287 86.8033905 174.18623352 C91.31226621 182.13070486 95.83891651 189.99267621 100.842453 197.63935852 C103.69336744 202.29657752 106.03079812 207.22144656 108.37760925 212.14717102 C109.03760925 212.14717102 109.69760925 212.14717102 110.37760925 212.14717102 C110.59417175 213.32279602 110.59417175 213.32279602 110.81510925 214.52217102 C111.2555985 217.1113812 111.2555985 217.1113812 112.37760925 219.14717102 C113.03760925 219.14717102 113.69760925 219.14717102 114.37760925 219.14717102 C114.59417175 220.32279602 114.59417175 220.32279602 114.81510925 221.52217102 C115.2555985 224.1113812 115.2555985 224.1113812 116.37760925 226.14717102 C117.03760925 226.14717102 117.69760925 226.14717102 118.37760925 226.14717102 C118.47436951 226.84624573 118.57112976 227.54532043 118.67082214 228.26557922 C119.50904719 231.68304735 120.91821812 234.21064177 122.686203 237.25263977 C123.01298538 237.81791885 123.33976776 238.38319794 123.67645264 238.96560669 C124.3649219 240.15331393 125.0567948 241.33905405 125.75187683 242.52290344 C126.8154232 244.335206 127.86781841 246.1536297 128.91862488 247.9733429 C132.17695121 253.90784283 132.17695121 253.90784283 136.37760925 259.14717102 C136.82153015 258.40555725 137.26545105 257.66394348 137.7228241 256.89985657 C139.373434 254.14315228 141.02471048 251.38684874 142.67643738 248.6308136 C143.3905714 247.43891614 144.10444111 246.24686028 144.81803894 245.05464172 C145.84500902 243.33897235 146.87301514 241.62392328 147.90104675 239.90888977 C148.51899109 238.87723694 149.13693542 237.84558411 149.77360535 236.78266907 C150.93286604 234.87791729 152.14074414 233.00246868 153.37760925 231.14717102 C153.02877717 227.62655748 151.93669717 224.96252916 150.217453 221.90107727 C149.53392761 220.66841125 149.53392761 220.66841125 148.83659363 219.4108429 C148.33450378 218.51945618 147.83241394 217.62806946 147.31510925 216.70967102 C146.21854936 214.73264199 145.12358417 212.75472788 144.029953 210.77607727 C143.44069031 209.71147278 142.85142761 208.64686829 142.24430847 207.55000305 C138.89649906 201.4472346 135.64201418 195.29482588 132.37760925 189.14717102 C127.70037337 180.34742899 122.98833634 171.56924526 118.19010925 162.83467102 C113.40274519 154.11390514 108.80059139 145.30507418 104.23454285 136.4667511 C100.20610907 128.68851588 96.04676637 120.9907757 91.826828 113.31513977 C88.2561298 106.80331384 84.79445491 100.24088879 81.37760925 93.64717102 C76.94701018 85.09836374 72.39612993 76.62456262 67.76335144 68.18379211 C62.8554656 59.22942442 58.11045759 50.19526343 53.37760925 41.14717102 C63.77260925 40.65217102 63.77260925 40.65217102 74.37760925 40.14717102 C75.36760925 43.11717102 75.36760925 43.11717102 76.37760925 46.14717102 C77.2529246 47.90807226 78.17704776 49.64538151 79.14323425 51.35810852 C79.69632263 52.34303284 80.24941101 53.32795715 80.81925964 54.34272766 C81.41601501 55.39194397 82.01277039 56.44116028 82.62760925 57.52217102 C83.24950134 58.62488342 83.87139343 59.72759583 84.51213074 60.86372375 C89.31768274 69.35645574 94.24501087 77.77533005 99.19059753 86.18696594 C103.84983825 94.15068353 108.2642579 102.23104296 112.62614441 110.36054993 C116.56572325 117.69024948 120.63723071 124.93233414 124.78825378 132.14399719 C128.70342256 138.94972675 132.55067392 145.79147326 136.37760925 152.64717102 C141.41178213 161.6639123 146.49648678 170.6495456 151.6471405 179.60029602 C152.10991394 180.40596008 152.57268738 181.21162415 153.04948425 182.04170227 C153.45263855 182.74142151 153.85579285 183.44114075 154.27116394 184.1620636 C155.3681429 186.13018715 156.38608017 188.12416839 157.37760925 190.14717102 C158.03760925 190.14717102 158.69760925 190.14717102 159.37760925 190.14717102 C159.58385925 190.91029602 159.79010925 191.67342102 160.00260925 192.45967102 C161.93655316 197.64615696 164.65612385 202.33750186 167.37760925 207.14717102 C170.20223226 204.6405308 171.81058693 201.85405581 173.62760925 198.56123352 C174.23604675 197.4655304 174.84448425 196.36982727 175.47135925 195.24092102 C176.414953 193.52388977 176.414953 193.52388977 177.37760925 191.77217102 C178.62701251 189.51402825 179.87699177 187.25620405 181.12760925 184.99873352 C181.679328 183.99664856 182.23104675 182.9945636 182.79948425 181.96211243 C184.37760925 179.14717102 184.37760925 179.14717102 186.23893738 176.64424133 C187.70893931 174.14642669 187.70893931 174.14642669 186.54753113 171.3742218 C185.98614441 170.37374817 185.42475769 169.37327454 184.84635925 168.34248352 C184.22632019 167.21278137 183.60628113 166.08307922 182.967453 164.91914368 C182.27126379 163.70324247 181.57463903 162.48759056 180.87760925 161.27217102 C180.17907209 160.01721711 179.48247535 158.76118127 178.7877655 157.50410461 C177.01649129 154.31204431 175.21981628 151.13521899 173.41227722 147.96357727 C171.8414509 145.20592087 170.28218903 142.44174439 168.72135925 139.67842102 C167.06303064 136.74632448 165.40243392 133.81568052 163.733078 130.8898468 C160.37058998 124.98150479 157.27546124 119.02265314 154.3033905 112.90888977 C151.24521516 106.79424281 147.7478819 100.90729325 144.35954285 94.97212219 C140.34616327 87.9207009 136.5154567 80.79414387 132.77384949 73.59565735 C129.99045536 68.25876426 127.05012386 63.04156912 123.9752655 57.86592102 C120.57090073 52.07267437 117.37043415 46.16296323 114.37760925 40.14717102 C121.4828812 38.56833795 128.68038665 37.8689894 135.37760925 41.14717102 C142.17016719 48.1762857 146.22069505 57.64544587 150.47575378 66.34541321 C153.12643089 71.7243071 156.21111106 76.83307053 159.31510925 81.95967102 C160.34969768 83.70793462 161.3835742 85.45661975 162.41667175 87.20576477 C166.62101519 94.25861308 170.97793153 101.21494743 175.37760925 108.14717102 C179.08501322 103.41842609 181.95425 98.20310596 184.95768738 93.01167297 C185.99961906 91.2148277 187.05171686 89.42419562 188.10417175 87.63349915 C188.76417175 86.49461243 189.42417175 85.35572571 190.10417175 84.18232727 C190.70825867 83.14471252 191.31234558 82.10709778 191.93473816 81.03804016 C193.31456973 78.27347406 194.13784066 76.21849247 194.37760925 73.14717102 C193.7738992 71.1320366 193.7738992 71.1320366 192.60417175 69.28388977 C192.1963446 68.57063538 191.78851746 67.85738098 191.36833191 67.12251282 C190.91764343 66.36752502 190.46695496 65.61253723 190.00260925 64.83467102 C189.31304138 63.63934753 189.31304138 63.63934753 188.60954285 62.4198761 C187.66131382 60.77637698 186.7076683 59.13599135 185.748703 57.49873352 C184.15318812 54.7622664 182.60409443 52.00220205 181.06217957 49.23530579 C177.17456061 42.26177732 173.21092447 35.33071068 169.25260925 28.39717102 C168.53452087 27.13876404 168.53452087 27.13876404 167.80192566 25.85493469 C166.86794757 24.22150796 165.91871753 22.59668029 164.95236301 20.98219681 C163.37760925 18.14717102 163.37760925 18.14717102 162.11458492 15.06194687 C160.52606137 11.55165697 159.02651175 8.95906707 156.37760925 6.14717102 C151.09044133 4.39034405 145.92988606 4.62483495 140.43644714 4.78486633 C138.8098221 4.78825398 137.18317873 4.78634579 135.55656433 4.77955627 C131.15260863 4.77611958 126.75259281 4.84654146 122.34955144 4.93044376 C117.74399126 5.00557955 113.13833557 5.01251749 108.53225708 5.02674866 C99.81575138 5.06401289 91.10105674 5.16243513 82.38534778 5.28294253 C72.46060058 5.41718082 62.53576578 5.48307668 52.61033642 5.54328775 C32.19841739 5.66864194 11.7881275 5.87964203 -8.62239075 6.14717102 Z " fill="#99989A" transform="translate(115.62239074707031,164.8528289794922)"/>
<path d="M0 0 C0.91507324 0.70926636 0.91507324 0.70926636 1.84863281 1.43286133 C3.29561248 2.59174979 4.68549149 3.82128278 6.0625 5.0625 C6.0625 5.7225 6.0625 6.3825 6.0625 7.0625 C-14.13736577 8.40033682 -14.13736577 8.40033682 -21.34375 2.1328125 C-43.49476324 -15.54796614 -78.78761035 -19.48811045 -106.03125 -16.44140625 C-125.20953026 -13.86906445 -151.76384582 -7.11115418 -165.9375 7.0625 C-167.49922745 7.14935603 -169.06479344 7.16952219 -170.62890625 7.16015625 C-171.57314453 7.15693359 -172.51738281 7.15371094 -173.49023438 7.15039062 C-174.48345703 7.14201172 -175.47667969 7.13363281 -176.5 7.125 C-177.49708984 7.12048828 -178.49417969 7.11597656 -179.52148438 7.11132812 C-181.99354849 7.09950007 -184.46549518 7.08301849 -186.9375 7.0625 C-183.34699528 2.39347865 -179.68986941 -0.91126578 -174.8125 -4.1875 C-174.11729248 -4.65639648 -173.42208496 -5.12529297 -172.70581055 -5.60839844 C-153.45298811 -18.3226473 -132.81780394 -26.66139692 -109.9375 -29.9375 C-109.11121094 -30.06769531 -108.28492188 -30.19789062 -107.43359375 -30.33203125 C-69.10798214 -35.33102407 -30.26597081 -23.47889245 0 0 Z " fill="#BF2027" transform="translate(366.9375,152.9375)"/>
<path d="M0 0 C4.62 0 9.24 0 14 0 C14.4031543 1.18440674 14.80630859 2.36881348 15.22167969 3.58911133 C16.73388267 8.03074482 18.24758677 12.47186556 19.76171875 16.9128418 C20.41381393 18.82611613 21.0655151 20.7395248 21.71679688 22.65307617 C26.7250124 37.37362883 26.7250124 37.37362883 32 52 C34.08219425 46.04124676 36.1633827 40.08214291 38.24389648 34.12280273 C38.95070011 32.0986347 39.65772774 30.07454486 40.36499023 28.05053711 C41.38585413 25.12895271 42.4058925 22.20708118 43.42578125 19.28515625 C43.73840408 18.39103531 44.05102692 17.49691437 44.37312317 16.57569885 C46.29541184 11.06533154 48.16626358 5.54048607 50 0 C54.62 0 59.24 0 64 0 C64 21.78 64 43.56 64 66 C60.7 66 57.4 66 54 66 C54 49.83 54 33.66 54 17 C52.85660156 20.36960937 51.71320313 23.73921875 50.53515625 27.2109375 C49.43011235 30.46430955 48.3245774 33.71751433 47.21899414 36.97070312 C46.44927384 39.2364789 45.68006636 41.50242896 44.91137695 43.76855469 C43.80814354 47.02063926 42.70308391 50.27209823 41.59765625 53.5234375 C41.25283707 54.54118256 40.90801788 55.55892761 40.55274963 56.60751343 C40.23249313 57.54833771 39.91223663 58.48916199 39.58227539 59.45849609 C39.30025772 60.28900482 39.01824005 61.11951355 38.72767639 61.97518921 C38 64 38 64 37 66 C33.7 66 30.4 66 27 66 C24.89985454 59.98618963 22.80026098 53.97218697 20.70117188 47.95800781 C19.98745533 45.91335887 19.27358972 43.86876195 18.55957031 41.82421875 C17.53150584 38.88034612 16.5039829 35.93628496 15.4765625 32.9921875 C15.15877838 32.0825827 14.84099426 31.17297791 14.51358032 30.23580933 C14.2134201 29.37537018 13.91325989 28.51493103 13.60400391 27.62841797 C13.34197174 26.87785126 13.07993958 26.12728455 12.80996704 25.35397339 C11.85406142 22.5758648 10.92906635 19.78719906 10 17 C10 33.17 10 49.34 10 66 C6.7 66 3.4 66 0 66 C0 44.22 0 22.44 0 0 Z " fill="#DE2526" transform="translate(61,493)"/>
<path d="M0 0 C6.36105996 5.79978997 11.23117075 11.39463095 11.6640625 20.30078125 C11.67404153 22.6380358 11.6600544 24.97548703 11.625 27.3125 C11.75384601 39.34467433 12.91699891 50.37679279 16 62 C16.48919922 63.89105469 16.48919922 63.89105469 16.98828125 65.8203125 C21.73025827 81.78784238 30.23609239 97.31604401 41 110 C41.70511719 110.84304688 42.41023438 111.68609375 43.13671875 112.5546875 C53.9075936 124.96923266 66.91846942 137.24378545 82.5 143.1875 C89.39573625 146.30095951 91.48119174 154.36936235 94 161 C93.34 161.33 92.68 161.66 92 162 C89.52898082 161.1285925 87.1988635 160.19203222 84.8125 159.125 C84.09924561 158.80764893 83.38599121 158.49029785 82.65112305 158.16333008 C47.96071392 142.31983342 20.37981144 113.24396379 6.859375 77.55078125 C0.93530462 60.93991656 -2.19994208 44.02097977 -2.1875 26.375 C-2.18814453 25.42093262 -2.18878906 24.46686523 -2.18945312 23.48388672 C-2.13055097 15.51737049 -1.36883831 7.84637676 0 0 Z " fill="#E21D27" transform="translate(134,241)"/>
<path d="M0 0 C0.99 0.495 0.99 0.495 2 1 C2.97403263 5.89734904 3.17183203 10.76371278 3.203125 15.7421875 C3.20882507 16.46882599 3.21452515 17.19546448 3.22039795 17.94412231 C3.22979519 19.4786842 3.23636079 21.01326579 3.24023438 22.54785156 C3.2498295 24.83437059 3.28085565 27.11994544 3.3125 29.40625 C3.52755818 59.36603734 -6.48298991 89.34493666 -25 113 C-25.70511719 113.92425781 -26.41023438 114.84851563 -27.13671875 115.80078125 C-43.63506639 136.74213095 -64.97438586 152.66841507 -90 162 C-90.66 162 -91.32 162 -92 162 C-91.66894074 160.33288013 -91.33512333 158.66630767 -91 157 C-90.87625 156.22140625 -90.7525 155.4428125 -90.625 154.640625 C-89.65809371 150.94220846 -88.54020671 148.10396581 -85.33984375 145.81005859 C-81.79068358 143.74706514 -78.09732761 141.99822342 -74.40234375 140.21484375 C-64.35286701 135.32713389 -56.08176935 127.5996989 -48 120 C-47.11441406 119.21109375 -47.11441406 119.21109375 -46.2109375 118.40625 C-22.38335687 96.27257321 -10.25824735 61.88891441 -9 30 C-9.04482611 28.49139172 -9.11084149 26.98324687 -9.19921875 25.4765625 C-9.8398879 14.2909262 -7.40521524 8.44841024 0 0 Z " fill="#702824" transform="translate(418,241)"/>
<path d="M0 0 C6.77859072 5.70531386 10.72921697 13.69295136 11.625 22.4375 C12.47537251 33.55418793 11.09121442 44.30547941 4.3515625 53.46875 C-1.64614887 60.30776931 -8.6529848 63.88834925 -17.671875 64.75390625 C-27.17929409 65.07566388 -34.60990926 63.40444329 -42.6875 58.375 C-51.19692805 49.07399724 -53.77077122 38.71327195 -53.25 26.375 C-52.27435823 16.11394005 -48.6328861 6.63696985 -40.52734375 -0.09765625 C-28.96888599 -7.97946741 -11.60331234 -7.83168118 0 0 Z M-38.375 11.4375 C-43.47669697 19.20377755 -44.34288751 29.16294685 -42.8125 38.1875 C-41.05406193 44.51088987 -37.57601447 50.525562 -31.875 54 C-25.45177001 56.66811092 -17.43071282 56.81049482 -10.87109375 54.58984375 C-4.47908824 51.01177615 -1.41871971 45.41955633 0.9375 38.6875 C2.80535463 29.43889939 2.32211257 20.73369882 -2.375 12.4375 C-6.01961831 8.04526768 -9.96335983 5.24138006 -15.375 3.4375 C-24.31992779 2.62432475 -32.23378126 4.37332353 -38.375 11.4375 Z " fill="#DE2526" transform="translate(369.375,496.5625)"/>
<path d="M0 0 C3.63 0 7.26 0 11 0 C13.68665012 2.80576269 15.01714419 4.66047685 16.75 8 C17.74322955 9.73396864 18.7381049 11.4669953 19.734375 13.19921875 C20.51264648 14.59793213 20.51264648 14.59793213 21.30664062 16.02490234 C24.36300213 21.39468627 27.70265026 26.58862683 31 31.8125 C32.78749112 34.68010372 34.57355112 37.54859417 36.359375 40.41723633 C38.19499346 43.30696962 40.10100807 46.15151211 42 49 C42.33 32.83 42.66 16.66 43 0 C45.97 0 48.94 0 52 0 C52 21.78 52 43.56 52 66 C41 66 41 66 38.47290039 64.0065918 C37.93656982 63.08015869 37.40023926 62.15372559 36.84765625 61.19921875 C36.22205811 60.16764648 35.59645996 59.13607422 34.9519043 58.07324219 C34.32840088 56.95594727 33.70489746 55.83865234 33.0625 54.6875 C32.03928777 52.97149165 31.01605707 51.25549237 29.99012756 49.54110718 C28.96293907 47.81196315 27.95391007 46.07327553 26.94824219 44.33154297 C24.15503389 39.55508677 21.17529982 34.90612389 18.1875 30.25 C17.24149721 28.75646844 16.29733499 27.26176863 15.35546875 25.765625 C14.97028076 25.15493164 14.58509277 24.54423828 14.18823242 23.91503906 C12.76743441 21.62518091 11.38647942 19.31079903 10 17 C9.67 33.17 9.34 49.34 9 66 C6.03 66 3.06 66 0 66 C0 44.22 0 22.44 0 0 Z " fill="#DE2526" transform="translate(391,493)"/>
<path d="M0 0 C16.17 0 32.34 0 49 0 C49 2.97 49 5.94 49 9 C36.13 9 23.26 9 10 9 C10 15.27 10 21.54 10 28 C21.88 28 33.76 28 46 28 C46 30.64 46 33.28 46 36 C34.12 36 22.24 36 10 36 C10 43.26 10 50.52 10 58 C22.87 58 35.74 58 49 58 C49 60.64 49 63.28 49 66 C32.83 66 16.66 66 0 66 C0 44.22 0 22.44 0 0 Z " fill="#DE2526" transform="translate(138,493)"/>
<path d="M0 0 C4.95093165 4.05166064 8.1133717 8.63260117 9.5625 14.875 C9.624375 15.7 9.68625 16.525 9.75 17.375 C6.45 17.375 3.15 17.375 -0.25 17.375 C-1.0234375 15.51875 -1.0234375 15.51875 -1.8125 13.625 C-3.61373215 10.10979263 -5.38391473 7.78184489 -9.05859375 5.99609375 C-14.86737692 4.34975413 -20.90980923 4.63827328 -26.625 6.4375 C-32.6122801 10.85668293 -35.60928273 15.03335729 -37.25 22.375 C-37.53174102 25.19444691 -37.5840422 27.98033454 -37.5625 30.8125 C-37.55831055 31.56241211 -37.55412109 32.31232422 -37.54980469 33.08496094 C-37.39402558 40.68499276 -35.92265584 46.85991794 -30.25 52.375 C-24.4645014 55.7990706 -18.8862275 56.20697542 -12.25 55.375 C-8.1498055 54.29236437 -6.00531598 52.57681788 -3.75 48.98828125 C-1.96580198 45.51619135 -0.48434661 42.07803984 0.75 38.375 C4.05 38.375 7.35 38.375 10.75 38.375 C9.02136371 47.47308575 7.00123801 54.52914139 -0.6875 60.16015625 C-9.06299768 65.43223292 -17.35984832 66.84277994 -27.12890625 64.76171875 C-34.03731341 62.58062219 -38.98368335 59.2713716 -43.25 53.375 C-48.86005991 42.51366308 -50.00516498 29.97029367 -47.56640625 18.02734375 C-44.72475169 9.64387324 -40.18431113 2.75105315 -32.38671875 -1.66015625 C-22.34546379 -6.19432439 -9.24226836 -6.39314804 0 0 Z " fill="#DE2526" transform="translate(299.25,495.625)"/>
<path d="M0 0 C15.84 0 31.68 0 48 0 C48 6.74972581 48 6.74972581 46.19921875 10.35864258 C45.80460449 11.16421097 45.40999023 11.96977936 45.00341797 12.79975891 C44.56916504 13.65603378 44.13491211 14.51230865 43.6875 15.39453125 C43.24035645 16.30015305 42.79321289 17.20577484 42.33251953 18.13883972 C40.89941822 21.03571213 39.45030055 23.92420595 38 26.8125 C36.5864294 29.65393683 35.17622327 32.49702498 33.76635742 35.34030151 C32.84244379 37.20241547 31.91683807 39.06369087 30.98950195 40.92410278 C27.6832195 47.56913007 24.48213753 54.25748182 21.37255859 60.9967804 C19.09989268 65.90010732 19.09989268 65.90010732 18 67 C15.46950598 67.07313567 12.96695163 67.09247527 10.4375 67.0625 C9.72658203 67.05798828 9.01566406 67.05347656 8.28320312 67.04882812 C6.52209987 67.03700864 4.76103964 67.01907263 3 67 C4.75579221 60.89566541 7.64068107 55.36752494 10.4453125 49.6953125 C10.97518768 48.61619598 11.50506287 47.53707947 12.05099487 46.42526245 C13.73877439 42.99007985 15.43181003 39.55751852 17.125 36.125 C18.27248337 33.79183776 19.41962277 31.45850632 20.56640625 29.125 C23.37298177 23.41437021 26.18665342 17.70731696 29 12 C19.43 12 9.86 12 0 12 C0 8.04 0 4.08 0 0 Z " fill="#ED1C24" transform="translate(453,493)"/>
<path d="M0 0 C17.82 0 35.64 0 54 0 C54 2.97 54 5.94 54 9 C46.74 9 39.48 9 32 9 C32 27.81 32 46.62 32 66 C28.7 66 25.4 66 22 66 C22 47.19 22 28.38 22 9 C14.74 9 7.48 9 0 9 C0 6.03 0 3.06 0 0 Z " fill="#DE2526" transform="translate(193,493)"/>
<path d="M0 0 C0.33 0 0.66 0 1 0 C2.4817043 19.57559337 2.4817043 19.57559337 -2.25 25.5 C-3.79492819 27.03952634 -5.38184617 28.53763116 -7 30 C-8.34755731 31.44722871 -9.6950695 32.89449997 -11.04150391 34.34277344 C-25.37889697 49.40495604 -43.5743237 60.75652748 -63 68 C-63.66 68 -64.32 68 -65 68 C-64.66894074 66.33288013 -64.33512333 64.66630767 -64 63 C-63.87625 62.22140625 -63.7525 61.4428125 -63.625 60.640625 C-62.65809371 56.94220846 -61.54020671 54.10396581 -58.33984375 51.81005859 C-54.79068358 49.74706514 -51.09732761 47.99822342 -47.40234375 46.21484375 C-37.35286701 41.32713389 -29.08176935 33.5996989 -21 26 C-20.40960938 25.4740625 -19.81921875 24.948125 -19.2109375 24.40625 C-12.82324975 18.47266327 -8.05107369 11.05664706 -3 4 C-2.02740627 2.64654545 -1.04115841 1.30144802 0 0 Z " fill="#D81D28" transform="translate(391,335)"/>
<path d="M0 0 C0.66 0.33 1.32 0.66 2 1 C2.97403263 5.89734904 3.17183203 10.76371278 3.203125 15.7421875 C3.20882507 16.46882599 3.21452515 17.19546448 3.22039795 17.94412231 C3.22979519 19.4786842 3.23636079 21.01326579 3.24023438 22.54785156 C3.2498295 24.83437059 3.28085565 27.11994544 3.3125 29.40625 C3.4240236 44.89904123 0.61410095 59.22082387 -4 74 C-4.33 74 -4.66 74 -5 74 C-5.11610295 65.38526672 -5.20482005 56.770863 -5.25906086 48.15553951 C-5.28510045 44.15459905 -5.32039338 40.15419579 -5.37719727 36.15356445 C-5.43172127 32.28910137 -5.46146292 28.42515335 -5.47438622 24.56033516 C-5.48358984 23.08955342 -5.50156279 21.61879831 -5.52865028 20.14823723 C-5.7578483 7.18383352 -5.7578483 7.18383352 -2.46948242 2.54125977 C-1.65455322 1.70264404 -0.83962402 0.86402832 0 0 Z " fill="#3A3A3C" transform="translate(418,241)"/>
<path d="M0 0 C5.71659396 3.1906571 11.2671322 6.6268618 16.81640625 10.09765625 C19.91323224 12.06122112 19.91323224 12.06122112 23.16015625 13.265625 C27.1021159 15.67309417 28.16200894 18.51792403 29.875 22.6875 C30.18179688 23.38939453 30.48859375 24.09128906 30.8046875 24.81445312 C31.55396587 26.53545189 32.27942664 28.26678655 33 30 C32.01 30.495 32.01 30.495 31 31 C28.52916373 30.128657 26.1989669 29.19134135 23.8125 28.125 C23.10794678 27.81344971 22.40339355 27.50189941 21.67749023 27.1809082 C16.45984004 24.80819296 11.48009321 22.12905484 6.5625 19.1875 C5.91837158 18.80287598 5.27424316 18.41825195 4.6105957 18.02197266 C0.13358523 15.26717046 0.13358523 15.26717046 -1 13 C-0.91188555 10.78861145 -0.7570216 8.57957815 -0.5625 6.375 C-0.46066406 5.18648438 -0.35882813 3.99796875 -0.25390625 2.7734375 C-0.17011719 1.85820312 -0.08632812 0.94296875 0 0 Z " fill="#772825" transform="translate(195,372)"/>
<path d="M0 0 C9.24 0 18.48 0 28 0 C26.53803405 3.65491489 25.18484108 6.55691099 23.1796875 9.86328125 C22.64472656 10.74951172 22.10976563 11.63574219 21.55859375 12.54882812 C21.00300781 13.46083984 20.44742187 14.37285156 19.875 15.3125 C19.31167969 16.24384766 18.74835938 17.17519531 18.16796875 18.13476562 C16.7819554 20.42521142 15.39254372 22.71352076 14 25 C10.67066816 20.69806123 8.03168839 16.07656444 5.3125 11.375 C4.80138672 10.50359375 4.29027344 9.6321875 3.76367188 8.734375 C3.28091797 7.90164063 2.79816406 7.06890625 2.30078125 6.2109375 C1.85903564 5.45087402 1.41729004 4.69081055 0.9621582 3.90771484 C0 2 0 2 0 0 Z " fill="#51403D" transform="translate(238,399)"/>
<path d="M0 0 C0.33 0 0.66 0 1 0 C1.04641855 8.24092493 1.08191745 16.48179487 1.10362434 24.72281837 C1.11404456 28.54979712 1.12817142 32.37668616 1.15087891 36.20361328 C1.17267035 39.89944715 1.18458187 43.59519493 1.18975449 47.2910881 C1.19343896 48.69843271 1.20063378 50.10577281 1.21146011 51.5130806 C1.226058 53.48995588 1.22681763 55.46691849 1.22705078 57.44384766 C1.231492 58.56747711 1.23593323 59.69110657 1.24050903 60.8487854 C0.98605893 64.18265969 0.18549621 66.88507688 -1 70 C-1.33 70 -1.66 70 -2 70 C-2.04631461 61.31611496 -2.08186471 52.63227237 -2.10362434 43.94829082 C-2.1140672 39.91608509 -2.12823551 35.88396378 -2.15087891 31.85180664 C-2.17258947 27.96147137 -2.18456484 24.07121736 -2.18975449 20.18082619 C-2.19345346 18.69564344 -2.20067654 17.2104652 -2.21146011 15.725317 C-2.22595148 13.64710203 -2.22797896 11.56922406 -2.22705078 9.4909668 C-2.231492 8.30738083 -2.23593323 7.12379486 -2.24050903 5.90434265 C-2 3 -2 3 0 0 Z " fill="#4E403C" transform="translate(415,245)"/>
<path d="M0 0 C6.4263414 3.96687741 12.53091444 7.77398491 18 13 C18 13.66 18 14.32 18 15 C12.06 15 6.12 15 0 15 C0 10.05 0 5.1 0 0 Z " fill="#4B413F" transform="translate(355,145)"/>
<path d="M0 0 C4.29 0 8.58 0 13 0 C12.05825397 3.76698413 10.95002893 5.99569791 8.9375 9.25 C8.38964844 10.14203125 7.84179688 11.0340625 7.27734375 11.953125 C6.64505859 12.96632813 6.64505859 12.96632813 6 14 C3.28565367 10.45107017 1.02886383 6.98526824 -1 3 C-0.67 2.01 -0.34 1.02 0 0 Z " fill="#3C3D3F" transform="translate(246,410)"/>
<path d="M0 0 C0.11638036 3.24969769 0.18730581 6.4988583 0.25 9.75 C0.30027344 11.13058594 0.30027344 11.13058594 0.3515625 12.5390625 C0.45112665 19.40898911 0.45112665 19.40898911 -2.015625 22.640625 C-2.67046875 23.08921875 -3.3253125 23.5378125 -4 24 C-4.27646774 20.93781928 -4.52190671 17.8783422 -4.75 14.8125 C-4.83121094 13.94818359 -4.91242188 13.08386719 -4.99609375 12.19335938 C-5.29657752 7.83634472 -5.43039651 5.69720735 -3.078125 1.88671875 C-1 0 -1 0 0 0 Z " fill="#AB242B" transform="translate(392,335)"/>
<path d="M0 0 C0.66 0 1.32 0 2 0 C4.31 4.95 6.62 9.9 9 15 C8.01 15.495 8.01 15.495 7 16 C4.64018187 15.06421005 2.30368736 14.06652192 0 13 C0 8.71 0 4.42 0 0 Z " fill="#4F3F3B" transform="translate(219,387)"/>
<path d="M0 0 C1.98 0.99 3.96 1.98 6 3 C5.67 3.66 5.34 4.32 5 5 C4.7724985 6.87056791 4.59037189 8.74685958 4.4375 10.625 C4.31181641 12.12933594 4.31181641 12.12933594 4.18359375 13.6640625 C4.12300781 14.43492187 4.06242188 15.20578125 4 16 C1.525 15.01 1.525 15.01 -1 14 C-0.67 9.38 -0.34 4.76 0 0 Z " fill="#A7252B" transform="translate(195,372)"/>
<path d="M0 0 C9.24 0 18.48 0 28 0 C27.67 0.99 27.34 1.98 27 3 C18.42 3 9.84 3 1 3 C0.67 2.01 0.34 1.02 0 0 Z " fill="#5D3029" transform="translate(238,399)"/>
<path d="M0 0 C3.60156104 2.05803488 6.88992126 4.24535883 10 7 C10 7.66 10 8.32 10 9 C6.7 9 3.4 9 0 9 C0 6.03 0 3.06 0 0 Z " fill="#3A3A3C" transform="translate(363,151)"/>
<path d="M0 0 C1.485 0.99 1.485 0.99 3 2 C3.29296875 5.0390625 3.29296875 5.0390625 3.1875 8.625 C3.16042969 9.81351563 3.13335937 11.00203125 3.10546875 12.2265625 C3.07066406 13.14179688 3.03585937 14.05703125 3 15 C2.01 15 1.02 15 0 15 C0 10.05 0 5.1 0 0 Z " fill="#5A3730" transform="translate(355,145)"/>
<path d="M0 0 C3.10916259 4.14555012 4.31562636 7.18750388 6 12 C4.02 11.34 2.04 10.68 0 10 C0 6.7 0 3.4 0 0 Z " fill="#3A3A3C" transform="translate(222,391)"/>
</svg>
